<svg width="17" height="18" viewBox="0 0 17 18" fill="none" xmlns="http://www.w3.org/2000/svg">
<path d="M8.51527 0.563721C3.83015 0.563721 0.0310059 4.42694 0.0310059 9.19283C0.0310059 13.0055 2.46201 16.2401 5.83306 17.3811C6.25708 17.461 6.41275 17.1939 6.41275 16.966C6.41275 16.7602 6.40488 16.0805 6.40123 15.3594C4.0409 15.8814 3.54284 14.3413 3.54284 14.3413C3.1569 13.3438 2.60082 13.0786 2.60082 13.0786C1.83104 12.543 2.65884 12.5541 2.65884 12.5541C3.51081 12.6148 3.95941 13.4433 3.95941 13.4433C4.71612 14.7625 5.9442 14.3811 6.42834 14.1606C6.50449 13.6031 6.72437 13.2221 6.96701 13.0067C5.08253 12.7885 3.10154 12.0486 3.10154 8.74214C3.10154 7.80002 3.43297 7.03023 3.97571 6.42592C3.88762 6.20843 3.59721 5.3309 4.0579 4.14229C4.0579 4.14229 4.77035 3.91036 6.39167 5.02682C7.06844 4.83562 7.79425 4.73974 8.51527 4.73645C9.23629 4.73974 9.96266 4.83562 10.6407 5.02682C12.26 3.91036 12.9715 4.14229 12.9715 4.14229C13.4333 5.3309 13.1428 6.20843 13.0547 6.42592C13.5987 7.03023 13.9279 7.80002 13.9279 8.74214C13.9279 12.0565 11.9431 12.7863 10.0538 12.9999C10.3582 13.2677 10.6293 13.7928 10.6293 14.5979C10.6293 15.7524 10.6195 16.6816 10.6195 16.966C10.6195 17.1956 10.7722 17.4647 11.2023 17.38C14.5715 16.2376 16.9994 13.0042 16.9994 9.19283C16.9994 4.42694 13.2008 0.563721 8.51527 0.563721Z" fill="white"/>
<path d="M3.24443 12.9533C3.22575 12.9963 3.15943 13.009 3.09902 12.9796C3.03748 12.9514 3.00292 12.893 3.02287 12.85C3.04113 12.8058 3.10759 12.7937 3.16899 12.823C3.23066 12.8513 3.26579 12.9103 3.24443 12.9533Z" fill="white"/>
<path d="M3.58805 13.3432C3.54759 13.3813 3.46849 13.3636 3.41482 13.3033C3.35933 13.2431 3.34893 13.1627 3.38995 13.124C3.43168 13.0858 3.50839 13.1037 3.56403 13.1638C3.61953 13.2247 3.63034 13.3046 3.58805 13.3432Z" fill="white"/>
<path d="M3.92259 13.8401C3.87061 13.8768 3.78561 13.8424 3.73306 13.7656C3.68108 13.6889 3.68108 13.5969 3.73419 13.56C3.78687 13.5231 3.87061 13.5563 3.92386 13.6325C3.9757 13.7103 3.9757 13.8025 3.92259 13.8401Z" fill="white"/>
<path d="M4.38094 14.3202C4.33443 14.3724 4.23538 14.3584 4.16289 14.2872C4.08871 14.2176 4.06805 14.1189 4.1147 14.0667C4.16176 14.0144 4.26137 14.0291 4.33443 14.0997C4.40805 14.1692 4.43053 14.2686 4.38094 14.3202Z" fill="white"/>
<path d="M5.0131 14.599C4.99259 14.6666 4.89719 14.6973 4.80109 14.6686C4.70513 14.639 4.64233 14.5598 4.66172 14.4915C4.68167 14.4235 4.77749 14.3915 4.87429 14.4222C4.97011 14.4517 5.03305 14.5303 5.0131 14.599Z" fill="white"/>
<path d="M5.70748 14.6507C5.70987 14.7219 5.62838 14.7809 5.52751 14.782C5.42607 14.7845 5.34402 14.7269 5.3429 14.6569C5.3429 14.585 5.42256 14.5265 5.524 14.5248C5.62487 14.5228 5.70748 14.58 5.70748 14.6507Z" fill="white"/>
<path d="M6.35356 14.5389C6.36564 14.6083 6.29553 14.6796 6.19536 14.6985C6.09687 14.7169 6.00569 14.674 5.99318 14.6052C5.98096 14.534 6.05233 14.4627 6.15068 14.4443C6.25099 14.4265 6.34077 14.4683 6.35356 14.5389Z" fill="white"/>
</svg>
