<svg width="17" height="18" viewBox="0 0 17 18" fill="none" xmlns="http://www.w3.org/2000/svg">
<path d="M0 9C0 4.30558 3.80558 0.5 8.5 0.5C13.1944 0.5 17 4.30558 17 9C17 13.6944 13.1944 17.5 8.5 17.5C3.80558 17.5 0 13.6944 0 9Z" fill="#0077B5"/>
<path fill-rule="evenodd" clip-rule="evenodd" d="M6.13374 5.74971C6.13374 6.30543 5.71543 6.7501 5.04376 6.7501H5.03145C4.38475 6.7501 3.96667 6.30543 3.96667 5.74971C3.96667 5.18223 4.39749 4.75 5.05646 4.75C5.71543 4.75 6.12123 5.18223 6.13374 5.74971ZM6.00687 7.54007V13.3278H4.08058V7.54007H6.00687ZM12.9537 13.3278L12.9538 10.0093C12.9538 8.23155 12.0035 7.40416 10.7359 7.40416C9.71318 7.40416 9.25529 7.96592 8.99962 8.36V7.54022H7.07311C7.0985 8.08331 7.07311 13.3279 7.07311 13.3279H8.99962V10.0956C8.99962 9.92262 9.01213 9.75006 9.06306 9.62622C9.20228 9.28065 9.51926 8.92287 10.0514 8.92287C10.7488 8.92287 11.0275 9.45359 11.0275 10.2313V13.3278H12.9537Z" fill="white"/>
</svg>
