<svg xmlns="http://www.w3.org/2000/svg" viewBox="0 0 155.14 215.89"><defs><style>.cls-1,.cls-2{fill:#ffe812;}.cls-1{stroke:#f2be12;}.cls-1,.cls-5{stroke-miterlimit:10;}.cls-3{fill:#fff;}.cls-4{fill:#d62503;}.cls-5{fill:none;stroke:#000;}</style></defs><g id="Layer_2" data-name="Layer 2"><g id="film-reel"><g id="logo"><circle class="cls-1" cx="23.08" cy="37.1" r="5.69"/><circle class="cls-1" cx="15.04" cy="43.53" r="8.04"/><ellipse class="cls-1" cx="34.12" cy="40.69" rx="8.57" ry="10.88"/><ellipse class="cls-1" cx="22.24" cy="48.04" rx="7.2" ry="8.08"/><circle class="cls-1" cx="41.85" cy="46.92" r="5.69"/><circle class="cls-1" cx="32.2" cy="49.65" r="5.69"/><path class="cls-2" d="M13.84,50.5H45a0,0,0,0,1,0,0v1.86A13.74,13.74,0,0,1,31.31,66.1H27.58A13.74,13.74,0,0,1,13.84,52.36V50.5A0,0,0,0,1,13.84,50.5Z"/><circle class="cls-1" cx="132.65" cy="20.7" r="5.69"/><circle class="cls-1" cx="140.69" cy="27.13" r="8.04"/><ellipse class="cls-1" cx="121.61" cy="24.29" rx="8.57" ry="10.88"/><ellipse class="cls-1" cx="133.49" cy="31.63" rx="7.2" ry="8.08"/><circle class="cls-1" cx="113.88" cy="30.52" r="5.69"/><circle class="cls-1" cx="123.53" cy="33.25" r="5.69"/><path class="cls-2" d="M124.43,34.1h3.73a13.74,13.74,0,0,1,13.74,13.74V49.7a0,0,0,0,1,0,0H110.68a0,0,0,0,1,0,0V47.84A13.74,13.74,0,0,1,124.43,34.1Z" transform="translate(252.58 83.8) rotate(180)"/><circle class="cls-1" cx="83.4" cy="7.78" r="5.69"/><circle class="cls-1" cx="75.37" cy="14.21" r="8.04"/><ellipse class="cls-1" cx="94.44" cy="11.38" rx="8.57" ry="10.88"/><ellipse class="cls-1" cx="82.57" cy="18.72" rx="7.2" ry="8.08"/><circle class="cls-1" cx="102.17" cy="17.6" r="5.69"/><circle class="cls-1" cx="92.53" cy="20.34" r="5.69"/><path class="cls-2" d="M74.16,21.18h31.21a0,0,0,0,1,0,0V23A13.74,13.74,0,0,1,91.63,36.79H87.9A13.74,13.74,0,0,1,74.16,23V21.18A0,0,0,0,1,74.16,21.18Z"/><circle class="cls-1" cx="130.18" cy="53.79" r="5.69"/><circle class="cls-1" cx="122.14" cy="60.22" r="8.04"/><ellipse class="cls-1" cx="141.21" cy="57.38" rx="8.57" ry="10.88"/><ellipse class="cls-1" cx="129.34" cy="64.73" rx="7.2" ry="8.08"/><circle class="cls-1" cx="148.94" cy="63.61" r="5.69"/><circle class="cls-1" cx="139.3" cy="66.34" r="5.69"/><path class="cls-2" d="M120.93,67.19h31.21a0,0,0,0,1,0,0v1.86A13.74,13.74,0,0,1,138.4,82.79h-3.73a13.74,13.74,0,0,1-13.74-13.74V67.19A0,0,0,0,1,120.93,67.19Z"/><circle class="cls-1" cx="74.62" cy="59.34" r="5.69"/><circle class="cls-1" cx="66.59" cy="65.77" r="8.04"/><ellipse class="cls-1" cx="85.66" cy="62.93" rx="8.57" ry="10.88"/><ellipse class="cls-1" cx="73.79" cy="70.27" rx="7.2" ry="8.08"/><circle class="cls-1" cx="93.39" cy="69.15" r="5.69"/><circle class="cls-1" cx="83.75" cy="71.89" r="5.69"/><path class="cls-2" d="M65.38,72.73H96.59a0,0,0,0,1,0,0v1.86A13.74,13.74,0,0,1,82.85,88.34H79.12A13.74,13.74,0,0,1,65.38,74.59V72.73A0,0,0,0,1,65.38,72.73Z"/><circle class="cls-1" cx="64.35" cy="32.66" r="5.69"/><circle class="cls-1" cx="56.32" cy="39.09" r="8.04"/><ellipse class="cls-1" cx="75.39" cy="36.25" rx="8.57" ry="10.88"/><ellipse class="cls-1" cx="63.51" cy="43.59" rx="7.2" ry="8.08"/><circle class="cls-1" cx="83.12" cy="42.48" r="5.69"/><circle class="cls-1" cx="73.47" cy="45.21" r="5.69"/><path class="cls-2" d="M55.11,46.05H86.32a0,0,0,0,1,0,0v1.86A13.74,13.74,0,0,1,72.58,61.66H68.85A13.74,13.74,0,0,1,55.11,47.92V46.05a0,0,0,0,1,0,0Z"/><circle class="cls-1" cx="130.19" cy="36.27" r="5.69"/><circle class="cls-1" cx="122.15" cy="42.7" r="8.04"/><ellipse class="cls-1" cx="141.22" cy="39.86" rx="8.57" ry="10.88"/><ellipse class="cls-1" cx="129.35" cy="47.2" rx="7.2" ry="8.08"/><circle class="cls-1" cx="148.95" cy="46.09" r="5.69"/><circle class="cls-1" cx="139.31" cy="48.82" r="5.69"/><path class="cls-2" d="M120.94,49.66h31.21a0,0,0,0,1,0,0v1.86a13.74,13.74,0,0,1-13.74,13.74h-3.73a13.74,13.74,0,0,1-13.74-13.74V49.66A0,0,0,0,1,120.94,49.66Z"/><circle class="cls-1" cx="120.3" cy="85.63" r="5.69"/><circle class="cls-1" cx="112.27" cy="92.06" r="8.04"/><ellipse class="cls-1" cx="131.34" cy="89.22" rx="8.57" ry="10.88"/><ellipse class="cls-1" cx="119.46" cy="96.57" rx="7.2" ry="8.08"/><circle class="cls-1" cx="139.07" cy="95.45" r="5.69"/><circle class="cls-1" cx="129.42" cy="98.19" r="5.69"/><path class="cls-2" d="M111.06,99h31.21a0,0,0,0,1,0,0v1.86a13.74,13.74,0,0,1-13.74,13.74H124.8a13.74,13.74,0,0,1-13.74-13.74V99a0,0,0,0,1,0,0Z"/><circle class="cls-1" cx="50.92" cy="74.78" r="5.69"/><circle class="cls-1" cx="42.88" cy="81.21" r="8.04"/><ellipse class="cls-1" cx="61.95" cy="78.37" rx="8.57" ry="10.88"/><ellipse class="cls-1" cx="50.08" cy="85.71" rx="7.2" ry="8.08"/><circle class="cls-1" cx="69.68" cy="84.59" r="5.69"/><circle class="cls-1" cx="60.04" cy="87.33" r="5.69"/><path class="cls-2" d="M41.67,88.17H72.88a0,0,0,0,1,0,0V90a13.74,13.74,0,0,1-13.74,13.74H55.41A13.74,13.74,0,0,1,41.67,90V88.17A0,0,0,0,1,41.67,88.17Z"/><circle class="cls-1" cx="104.88" cy="54.91" r="5.69"/><circle class="cls-1" cx="96.85" cy="61.34" r="8.04"/><ellipse class="cls-1" cx="115.92" cy="58.5" rx="8.57" ry="10.88"/><ellipse class="cls-1" cx="104.04" cy="65.84" rx="7.2" ry="8.08"/><circle class="cls-1" cx="123.65" cy="64.73" r="5.69"/><circle class="cls-1" cx="114" cy="67.46" r="5.69"/><path class="cls-2" d="M95.64,68.3h31.21a0,0,0,0,1,0,0v1.86a13.74,13.74,0,0,1-13.74,13.74h-3.73A13.74,13.74,0,0,1,95.64,70.17V68.3A0,0,0,0,1,95.64,68.3Z"/><circle class="cls-1" cx="99.85" cy="14.52" r="5.69"/><circle class="cls-1" cx="91.82" cy="20.95" r="8.04"/><ellipse class="cls-1" cx="110.89" cy="18.11" rx="8.57" ry="10.88"/><ellipse class="cls-1" cx="99.01" cy="25.45" rx="7.2" ry="8.08"/><circle class="cls-1" cx="118.62" cy="24.33" r="5.69"/><circle class="cls-1" cx="108.97" cy="27.07" r="5.69"/><path class="cls-2" d="M90.61,27.91h31.21a0,0,0,0,1,0,0v1.86a13.74,13.74,0,0,1-13.74,13.74h-3.73A13.74,13.74,0,0,1,90.61,29.78V27.91A0,0,0,0,1,90.61,27.91Z"/><circle class="cls-1" cx="83.51" cy="32.27" r="5.69"/><circle class="cls-1" cx="75.47" cy="38.7" r="8.04"/><ellipse class="cls-1" cx="94.54" cy="35.86" rx="8.57" ry="10.88"/><ellipse class="cls-1" cx="82.67" cy="43.2" rx="7.2" ry="8.08"/><circle class="cls-1" cx="102.27" cy="42.09" r="5.69"/><circle class="cls-1" cx="92.63" cy="44.82" r="5.69"/><path class="cls-2" d="M74.26,45.66h31.21a0,0,0,0,1,0,0v1.86A13.74,13.74,0,0,1,91.73,61.27H88A13.74,13.74,0,0,1,74.26,47.53V45.66A0,0,0,0,1,74.26,45.66Z"/><circle class="cls-1" cx="44.55" cy="63.84" r="5.69"/><circle class="cls-1" cx="36.52" cy="70.27" r="8.04"/><ellipse class="cls-1" cx="55.59" cy="67.43" rx="8.57" ry="10.88"/><ellipse class="cls-1" cx="43.72" cy="74.78" rx="7.2" ry="8.08"/><circle class="cls-1" cx="63.32" cy="73.66" r="5.69"/><circle class="cls-1" cx="53.68" cy="76.39" r="5.69"/><path class="cls-2" d="M35.31,77.24H66.52a0,0,0,0,1,0,0V79.1A13.74,13.74,0,0,1,52.78,92.84H49.05A13.74,13.74,0,0,1,35.31,79.1V77.24A0,0,0,0,1,35.31,77.24Z"/><circle class="cls-1" cx="31.49" cy="24.7" r="5.69"/><circle class="cls-1" cx="23.45" cy="31.13" r="8.04"/><ellipse class="cls-1" cx="42.52" cy="28.29" rx="8.57" ry="10.88"/><ellipse class="cls-1" cx="30.65" cy="35.63" rx="7.2" ry="8.08"/><circle class="cls-1" cx="50.25" cy="34.52" r="5.69"/><circle class="cls-1" cx="40.61" cy="37.25" r="5.69"/><path class="cls-2" d="M22.24,38.09H53.45a0,0,0,0,1,0,0V40A13.74,13.74,0,0,1,39.71,53.7H36A13.74,13.74,0,0,1,22.24,40V38.09A0,0,0,0,1,22.24,38.09Z"/><circle class="cls-1" cx="59.13" cy="12.19" r="5.69"/><circle class="cls-1" cx="51.09" cy="18.62" r="8.04"/><ellipse class="cls-1" cx="70.16" cy="15.78" rx="8.57" ry="10.88"/><ellipse class="cls-1" cx="58.29" cy="23.13" rx="7.2" ry="8.08"/><circle class="cls-1" cx="77.89" cy="22.01" r="5.69"/><circle class="cls-1" cx="68.25" cy="24.74" r="5.69"/><path class="cls-2" d="M49.88,25.59H81.09a0,0,0,0,1,0,0v1.86A13.74,13.74,0,0,1,67.35,41.19H63.62A13.74,13.74,0,0,1,49.88,27.45V25.59a0,0,0,0,1,0,0Z"/><circle class="cls-1" cx="41.03" cy="36.92" r="5.69"/><circle class="cls-1" cx="32.99" cy="43.35" r="8.04"/><ellipse class="cls-1" cx="52.07" cy="40.51" rx="8.57" ry="10.88"/><ellipse class="cls-1" cx="40.19" cy="47.85" rx="7.2" ry="8.08"/><circle class="cls-1" cx="59.8" cy="46.74" r="5.69"/><circle class="cls-1" cx="50.15" cy="49.47" r="5.69"/><path class="cls-2" d="M31.79,50.32H63a0,0,0,0,1,0,0v1.86A13.74,13.74,0,0,1,49.25,65.92H45.53A13.74,13.74,0,0,1,31.79,52.18V50.32a0,0,0,0,1,0,0Z"/><circle class="cls-1" cx="88.43" cy="80.47" r="5.69"/><circle class="cls-1" cx="80.4" cy="86.9" r="8.04"/><ellipse class="cls-1" cx="99.47" cy="84.06" rx="8.57" ry="10.88"/><ellipse class="cls-1" cx="87.6" cy="91.4" rx="7.2" ry="8.08"/><circle class="cls-1" cx="107.2" cy="90.29" r="5.69"/><circle class="cls-1" cx="97.56" cy="93.02" r="5.69"/><path class="cls-2" d="M79.19,93.86H110.4a0,0,0,0,1,0,0v1.86a13.74,13.74,0,0,1-13.74,13.74H92.93A13.74,13.74,0,0,1,79.19,95.73V93.86a0,0,0,0,1,0,0Z"/><circle class="cls-1" cx="57.57" cy="89.43" r="5.69"/><circle class="cls-1" cx="49.54" cy="95.86" r="8.04"/><ellipse class="cls-1" cx="68.61" cy="93.02" rx="8.57" ry="10.88"/><ellipse class="cls-1" cx="56.74" cy="100.36" rx="7.2" ry="8.08"/><circle class="cls-1" cx="76.34" cy="99.25" r="5.69"/><circle class="cls-1" cx="66.69" cy="101.98" r="5.69"/><path class="cls-2" d="M48.33,102.82H79.54a0,0,0,0,1,0,0v1.86A13.74,13.74,0,0,1,65.8,118.43H62.07a13.74,13.74,0,0,1-13.74-13.74v-1.86A0,0,0,0,1,48.33,102.82Z"/><circle class="cls-1" cx="16.57" cy="49.74" r="5.69"/><circle class="cls-1" cx="8.54" cy="56.17" r="8.04"/><ellipse class="cls-1" cx="27.61" cy="53.33" rx="8.57" ry="10.88"/><ellipse class="cls-1" cx="15.73" cy="60.68" rx="7.2" ry="8.08"/><circle class="cls-1" cx="35.34" cy="59.56" r="5.69"/><circle class="cls-1" cx="25.69" cy="62.29" r="5.69"/><path class="cls-2" d="M7.33,63.14H38.54a0,0,0,0,1,0,0V65A13.74,13.74,0,0,1,24.8,78.74H21.07A13.74,13.74,0,0,1,7.33,65V63.14A0,0,0,0,1,7.33,63.14Z"/><circle class="cls-1" cx="97.68" cy="50.4" r="5.69"/><circle class="cls-1" cx="89.65" cy="56.83" r="8.04"/><ellipse class="cls-1" cx="108.72" cy="54" rx="8.57" ry="10.88"/><ellipse class="cls-1" cx="96.85" cy="61.34" rx="7.2" ry="8.08"/><circle class="cls-1" cx="116.45" cy="60.22" r="5.69"/><circle class="cls-1" cx="106.8" cy="62.96" r="5.69"/><path class="cls-2" d="M88.44,63.8h31.21a0,0,0,0,1,0,0v1.86A13.74,13.74,0,0,1,105.91,79.4h-3.73A13.74,13.74,0,0,1,88.44,65.66V63.8A0,0,0,0,1,88.44,63.8Z"/><circle class="cls-1" cx="125.99" cy="67.45" r="5.69"/><circle class="cls-1" cx="117.96" cy="73.88" r="8.04"/><ellipse class="cls-1" cx="137.03" cy="71.04" rx="8.57" ry="10.88"/><ellipse class="cls-1" cx="125.16" cy="78.38" rx="7.2" ry="8.08"/><circle class="cls-1" cx="144.76" cy="77.27" r="5.69"/><circle class="cls-1" cx="135.12" cy="80" r="5.69"/><path class="cls-2" d="M116.75,80.85H148a0,0,0,0,1,0,0v1.86a13.74,13.74,0,0,1-13.74,13.74h-3.73a13.74,13.74,0,0,1-13.74-13.74V80.85a0,0,0,0,1,0,0Z"/><circle class="cls-1" cx="57.72" cy="55.84" r="5.69"/><circle class="cls-1" cx="49.68" cy="62.27" r="8.04"/><ellipse class="cls-1" cx="68.75" cy="59.43" rx="8.57" ry="10.88"/><ellipse class="cls-1" cx="56.88" cy="66.77" rx="7.2" ry="8.08"/><circle class="cls-1" cx="76.48" cy="65.66" r="5.69"/><circle class="cls-1" cx="66.84" cy="68.39" r="5.69"/><path class="cls-2" d="M48.47,69.23H79.68a0,0,0,0,1,0,0V71.1A13.74,13.74,0,0,1,65.94,84.84H62.21A13.74,13.74,0,0,1,48.47,71.1V69.23A0,0,0,0,1,48.47,69.23Z"/><path class="cls-3" d="M148.46,84.31,130.62,215.39V67.49C135.78,68.92,141.77,73.72,148.46,84.31Z"/><path class="cls-4" d="M130.62,67.49v147.9H109.75V82.17S117.47,63.84,130.62,67.49Z"/><path class="cls-3" d="M109.75,82.17V215.39H85.26V67.28C92.24,66.89,100.59,70.42,109.75,82.17Z"/><path class="cls-4" d="M85.26,67.28V215.39H64.05V82.17S72.3,68,85.26,67.28Z"/><path class="cls-3" d="M64.05,82.17V215.39H39.53V70.11C47.09,70.08,55.59,73.08,64.05,82.17Z"/><path class="cls-4" d="M39.53,70.11V215.39L13.2,82.17S24.51,70.17,39.53,70.11Z"/><path class="cls-5" d="M130.62,67.49c5.16,1.43,11.15,6.23,17.84,16.82L130.62,215.39H39.53L13.2,82.17s11.31-12,26.33-12.06c7.56,0,16.06,3,24.52,12.06,0,0,8.25-14.18,21.21-14.89,7-.39,15.33,3.14,24.49,14.89C109.75,82.17,117.47,63.84,130.62,67.49Z"/><line class="cls-5" x1="39.53" y1="215.39" x2="39.53" y2="70.11"/><line class="cls-5" x1="64.05" y1="82.17" x2="64.05" y2="215.39"/><line class="cls-5" x1="109.75" y1="82.17" x2="109.75" y2="215.39"/><polyline class="cls-5" points="85.27 215.39 85.27 67.28 85.27 67.27"/><polyline class="cls-5" points="130.63 215.39 130.63 67.49 130.63 67.27"/><path d="M45.43,144.11c5.25.34,10.77.4,15.54-2.13,1.55-.83,4.24-2.42,4.56-4.32s-1.94-2.24-3-1.18a9.76,9.76,0,0,0-1.6,2.83c-.54,1.1-1.1,2.18-1.68,3.25A45.89,45.89,0,0,1,55,149a27,27,0,0,1-5.3,5.17,5.16,5.16,0,0,1-1.67.92.82.82,0,0,1-.77-1.41c1.27-1.25,3.47.58,4.68,1.14a4.72,4.72,0,0,0,5.19-.72c1.54-1.18,3-3.2,5-3.32L62,149.57a4.83,4.83,0,0,0-3.58,4.64.63.63,0,0,0,.94.54,7.4,7.4,0,0,0,3.06-2.45l-1.08-.63a2.86,2.86,0,0,0-.24,2.56.64.64,0,0,0,.77.44,5.21,5.21,0,0,0,3.23-2.79c.33-.72-.7-1.36-1.08-.63a5.08,5.08,0,0,0-.62,2.38.63.63,0,0,0,.46.6,3.63,3.63,0,0,0,4.31-1.93c.24-.52-.29-1.24-.86-.86a1.65,1.65,0,0,0,.69,2.91c2.35.59,2.82-2.93,4.72-3.27l-.71-.91a4.78,4.78,0,0,0-.1,5.3.64.64,0,0,0,1.08,0,14.15,14.15,0,0,1,4.25-3.79.63.63,0,0,0-.31-1.16,5.73,5.73,0,0,0-5.13,2.89.63.63,0,0,0,.54.94,8,8,0,0,0,5-1.83l-1.07-.44-.09,2.06a.64.64,0,0,0,.46.61,3,3,0,0,0,2-.24c.73-.34.1-1.41-.63-1.08l-1.08.11.46.6.09-2.06c0-.59-.68-.75-1.07-.44a6.67,6.67,0,0,1-4.11,1.46l.53.94A4.49,4.49,0,0,1,77,151.77l-.32-1.17a15.63,15.63,0,0,0-4.7,4.24H73a3.57,3.57,0,0,1,.1-4c.34-.5-.22-1-.71-.92a3.17,3.17,0,0,0-2,1.31c-.3.37-.54.77-.84,1.13a1.87,1.87,0,0,1-.71.63.36.36,0,0,1-.6,0c-.29,0-.4-.17-.32-.45l-.85-.85a2.41,2.41,0,0,1-2.9,1.36l.46.6a3.59,3.59,0,0,1,.45-1.75L64,151.25a4,4,0,0,1-2.48,2.21l.77.44a1.74,1.74,0,0,1,.11-1.6c.41-.72-.61-1.26-1.08-.63a6.34,6.34,0,0,1-2.61,2l.94.54a3.55,3.55,0,0,1,2.66-3.44c.66-.18.56-1.27-.16-1.22A7,7,0,0,0,58,151.7c-1.59,1.42-3.14,3.06-5.44,2.06-1.74-.76-3.9-2.59-5.85-1.23-1.16.81-1.59,2.68-.29,3.56,1.71,1.16,3.89-.76,5.14-1.77a29.07,29.07,0,0,0,4.78-5,48.65,48.65,0,0,0,3.94-6.12c.58-1.07,1.14-2.15,1.68-3.25.27-.53.52-1.08.79-1.62a2.1,2.1,0,0,1,.44-.73c.26-.49.48-.29.66.61a5.66,5.66,0,0,1-.42.43c-4.69,4.69-11.87,4.63-18,4.23-.8-.05-.8,1.2,0,1.25Z"/><path d="M80.94,141.85a5.29,5.29,0,0,1,4.89-4.5l-.6-.46c1.77,6.12-2,12-5.29,16.89l1.08.63a63.19,63.19,0,0,1,5.06-8.08c1-1.35,2-2.65,3.16-3.92A22.32,22.32,0,0,1,92.52,139a3,3,0,0,1,1.72-.72c1.13.14.88,1.57.8,2.38A18.2,18.2,0,0,1,89,152.45l1,.76A32.9,32.9,0,0,1,101.47,139l-.86-.22c1.49,2.35,1,5.23-.22,7.59a25.86,25.86,0,0,1-2.1,3.26,14.83,14.83,0,0,0-2.15,3.2c-.68,1.81,1.1,2.53,2.54,1.89a29.5,29.5,0,0,0,6.23-4.23c.6-.49-.17-1.24-.76-1a6.17,6.17,0,0,0-3.59,4.35.64.64,0,0,0,.92.71,5.94,5.94,0,0,0,3.29-4.16l-.6.45a9.6,9.6,0,0,0,5.45-1.77l-.85-.85L105.23,153a.63.63,0,0,0,.54.94,3.93,3.93,0,0,0,3.33-2l-1.14-.48-.32,1.67a.64.64,0,0,0,.77.77,11.84,11.84,0,0,0,3.18-1.54l-.76-1c-.73.91-.28,1.87.73,2.35a2.36,2.36,0,0,0,1.61.18c1-.26,1.81-1.29,2.9-1,.49.13,1-.46.71-.92-5.33-7.36-14.68-10.06-23.17-11.82a98.79,98.79,0,0,0-31.72-1.36c-4.83.58-9.89,1.5-13.57,5a.64.64,0,0,0,.28,1,58.17,58.17,0,0,0,12.55,1.48l14.09.54,28,1.08-.16-1.22-28,6.44c-.8.18-.44,1.32.33,1.2a143.83,143.83,0,0,1,36.08-1c.8.08.8-1.17,0-1.25A145.06,145.06,0,0,0,75,153.08l.33,1.2,28-6.44c.71-.16.52-1.2-.17-1.23l-27.49-1.06L62.11,145a60.17,60.17,0,0,1-13.18-1.47l.27,1c3.24-3,7.72-4,12-4.51a97.36,97.36,0,0,1,14.88-.74c9.41.25,19.26,1.61,28.09,5,4.46,1.72,8.69,4.27,11.54,8.2l.7-.92a2.87,2.87,0,0,0-2,.23c-.41.19-.79.47-1.2.64a1.08,1.08,0,0,1-1.11,0,.38.38,0,0,1-.34-.33c.4-.5-.12-1.42-.76-1a10.56,10.56,0,0,1-2.88,1.41l.77.77.31-1.67a.63.63,0,0,0-1.14-.48,2.66,2.66,0,0,1-2.25,1.41l.54.94,3.54-4.72c.37-.5-.36-1.21-.86-.86a8.36,8.36,0,0,1-4.82,1.6.65.65,0,0,0-.61.46,4.7,4.7,0,0,1-2.71,3.42l.92.71a5,5,0,0,1,3-3.61l-.76-1a28,28,0,0,1-5.61,3.86,2.1,2.1,0,0,1-.9.31.84.84,0,0,1,.09-1,8.59,8.59,0,0,1,1-1.41c.64-.88,1.29-1.75,1.88-2.65,2-3.09,3.36-7.14,1.21-10.53a.64.64,0,0,0-.86-.22,34.16,34.16,0,0,0-12,14.64.63.63,0,0,0,1,.76,19.73,19.73,0,0,0,5.74-9.05c.55-1.84,2-7.19-1.35-7.23A5.31,5.31,0,0,0,90.72,139a57.81,57.81,0,0,0-4,4.53,64.15,64.15,0,0,0-6.74,10.26.63.63,0,0,0,1.08.63c3.49-5.17,7.28-11.37,5.41-17.85a.64.64,0,0,0-.6-.46,6.52,6.52,0,0,0-6.09,5.42c-.13.78,1.08,1.12,1.2.33Z"/></g></g></g></svg>